<svg version="1.1" id="Layer_1" xmlns="http://www.w3.org/2000/svg" xmlns:xlink="http://www.w3.org/1999/xlink" x="0px" y="0px"
	 width="100%" viewBox="0 0 280 280" enable-background="new 0 0 280 280" xml:space="preserve">
<path fill="#010101" opacity="1.000000" stroke="none" 
	d="
M281.000000,185.000000 
	C281.000000,216.980438 281.000000,248.960876 281.000000,280.970642 
	C187.743271,280.970642 94.486542,280.970642 1.114903,280.970642 
	C1.114903,187.666748 1.114903,94.333397 1.114903,1.000000 
	C20.753399,1.000000 40.408039,1.000000 60.568092,1.344553 
	C64.577118,5.570370 67.849258,9.696840 71.639297,13.274688 
	C77.147240,18.474247 82.983925,23.330837 88.761620,28.238089 
	C96.898163,35.148811 105.164726,41.907753 113.231850,48.897606 
	C114.535782,50.027416 115.094360,52.017448 115.538185,53.708206 
	C100.087624,53.814896 85.092751,54.010334 70.107185,53.721977 
	C65.372009,53.630859 64.187119,55.237099 64.216965,59.710220 
	C64.385887,85.027931 64.389168,110.347969 64.214600,135.665604 
	C64.183350,140.197449 65.534294,141.872513 70.181725,141.784714 
	C82.836632,141.545624 95.499016,141.704712 108.158432,141.700333 
	C115.421875,141.697830 115.425743,141.692856 115.428444,134.621796 
	C115.432182,124.872627 115.429375,115.123459 115.429375,105.235046 
	C126.387657,105.235046 136.717865,104.775070 146.987244,105.368309 
	C156.674622,105.927933 164.828461,110.518166 170.896408,118.135086 
	C179.772034,129.276413 182.161392,141.751694 176.602783,155.048767 
	C171.429962,167.422958 162.019196,175.335190 148.587006,176.920898 
	C139.213852,178.027451 129.656357,177.781189 120.183609,177.725906 
	C116.690239,177.705490 114.237076,178.839172 111.904640,181.200623 
	C98.381104,194.892395 84.769920,208.497665 71.269699,222.212265 
	C69.977783,223.524689 69.245262,225.387772 68.253052,226.995224 
	C70.147614,227.640366 72.039001,228.835876 73.937195,228.846771 
	C96.590141,228.976761 119.244545,228.839996 141.897705,228.950272 
	C183.805664,229.154251 222.618057,198.124832 229.242126,155.678802 
	C229.797852,152.117905 230.354660,148.557175 231.281433,145.001602 
	C235.253372,147.754639 239.010315,150.322998 242.427490,153.283539 
	C253.118240,162.545639 263.628601,172.016296 274.341919,181.251755 
	C276.233002,182.881973 278.764343,183.769501 281.000000,185.000000 
z"/>
<path fill="#0A0A0B" opacity="1.000000" stroke="none" 
	d="
M92.000000,1.000001 
	C103.020897,1.000000 114.041786,1.000000 125.568459,1.345170 
	C131.261642,6.506037 136.406006,11.369153 141.646896,16.125929 
	C148.881378,22.692154 156.089417,29.293247 163.487167,35.672512 
	C175.647858,46.158962 188.066162,56.348251 200.162979,66.906731 
	C212.224915,77.434769 223.966354,88.329102 235.956757,98.940285 
	C247.627716,109.268761 259.365540,119.524849 271.234100,129.624588 
	C274.171051,132.123840 277.728027,133.894440 281.000000,136.000000 
	C281.000000,141.354935 281.000000,146.709854 280.641479,152.493271 
	C273.030975,150.754578 269.088867,144.631775 263.913727,139.805054 
	C253.667664,130.248810 242.719269,121.434921 231.879593,112.535355 
	C229.862717,110.879456 226.994095,110.260941 224.294418,108.905205 
	C209.394226,74.877586 183.099411,57.405281 146.981674,53.349060 
	C146.120575,51.642193 145.522568,50.000298 144.374832,48.971966 
	C140.684967,45.665962 136.703827,42.686172 132.994995,39.400017 
	C123.737488,31.197531 114.478714,22.992214 105.400467,14.593451 
	C100.734917,10.277101 96.454468,5.544500 92.000000,1.000001 
z"/>
<path fill="#0D0D0E" opacity="1.000000" stroke="none" 
	d="
M137.000000,1.000000 
	C141.356903,1.000000 145.713806,1.000000 150.573425,1.355414 
	C152.234329,3.244037 153.209274,4.971514 154.587418,6.271547 
	C157.841125,9.340842 161.309097,12.181638 164.650116,15.160055 
	C171.425278,21.199923 178.086121,27.371195 184.953430,33.303856 
	C195.730911,42.614529 206.763519,51.632248 217.462494,61.030842 
	C230.752945,72.705917 243.809814,84.646782 256.976654,96.462715 
	C259.772339,98.971550 262.518066,101.547630 265.443573,103.897560 
	C270.565063,108.011375 275.807953,111.974022 281.000000,116.000000 
	C281.000000,119.692909 281.000000,123.385818 280.651550,127.501144 
	C276.964569,125.233620 273.531433,122.652092 270.303497,119.835419 
	C254.190521,105.775276 238.101288,91.687500 222.066711,77.538063 
	C214.633484,70.978706 207.436661,64.150101 199.963623,57.637535 
	C191.731445,50.463383 183.274643,43.547714 174.971603,36.453999 
	C165.684708,28.519739 156.327682,20.658894 147.272507,12.466194 
	C143.488129,9.042270 140.403030,4.845425 137.000000,1.000000 
z"/>
<path fill="#040404" opacity="1.000000" stroke="none" 
	d="
M91.531342,1.000001 
	C96.454468,5.544500 100.734917,10.277101 105.400467,14.593451 
	C114.478714,22.992214 123.737488,31.197531 132.994995,39.400017 
	C136.703827,42.686172 140.684967,45.665962 144.374832,48.971966 
	C145.522568,50.000298 146.120575,51.642193 146.519379,53.427929 
	C136.044815,53.771717 126.021141,53.690781 115.997475,53.609844 
	C115.094360,52.017448 114.535782,50.027416 113.231850,48.897606 
	C105.164726,41.907753 96.898163,35.148811 88.761620,28.238089 
	C82.983925,23.330837 77.147240,18.474247 71.639297,13.274688 
	C67.849258,9.696840 64.577118,5.570370 61.036751,1.344553 
	C71.020897,1.000000 81.041786,1.000000 91.531342,1.000001 
z"/>
<path fill="#070707" opacity="1.000000" stroke="none" 
	d="
M224.518570,109.163666 
	C226.994095,110.260941 229.862717,110.879456 231.879593,112.535355 
	C242.719269,121.434921 253.667664,130.248810 263.913727,139.805054 
	C269.088867,144.631775 273.030975,150.754578 280.641479,152.960876 
	C281.000000,163.354233 281.000000,173.708450 281.000000,184.531342 
	C278.764343,183.769501 276.233002,182.881973 274.341919,181.251755 
	C263.628601,172.016296 253.118240,162.545639 242.427490,153.283539 
	C239.010315,150.322998 235.253372,147.754639 231.171173,144.563049 
	C230.864136,132.073502 228.638870,120.451286 224.518570,109.163666 
z"/>
<path fill="#0F0F0F" opacity="1.000000" stroke="none" 
	d="
M281.000000,115.539360 
	C275.807953,111.974022 270.565063,108.011375 265.443573,103.897560 
	C262.518066,101.547630 259.772339,98.971550 256.976654,96.462715 
	C243.809814,84.646782 230.752945,72.705917 217.462494,61.030842 
	C206.763519,51.632248 195.730911,42.614529 184.953430,33.303856 
	C178.086121,27.371195 171.425278,21.199923 164.650116,15.160055 
	C161.309097,12.181638 157.841125,9.340842 154.587418,6.271547 
	C153.209274,4.971514 152.234329,3.244037 151.038071,1.355414 
	C155.024551,1.000000 159.049088,1.000000 163.574982,1.355777 
	C168.675522,6.309062 173.072678,11.132439 177.912109,15.461372 
	C191.958496,28.026014 206.176682,40.398739 220.339310,52.833256 
	C225.932785,57.744213 231.541504,62.638103 237.174179,67.504044 
	C240.640884,70.498878 244.232635,73.351494 247.649277,76.401237 
	C252.802856,81.001381 257.674103,85.933990 262.994324,90.326904 
	C268.800751,95.121307 274.982086,99.461700 281.000000,104.000000 
	C281.000000,107.692909 281.000000,111.385818 281.000000,115.539360 
z"/>
<path fill="#0B0B0B" opacity="1.000000" stroke="none" 
	d="
M136.541931,1.000000 
	C140.403030,4.845425 143.488129,9.042270 147.272507,12.466194 
	C156.327682,20.658894 165.684708,28.519739 174.971603,36.453999 
	C183.274643,43.547714 191.731445,50.463383 199.963623,57.637535 
	C207.436661,64.150101 214.633484,70.978706 222.066711,77.538063 
	C238.101288,91.687500 254.190521,105.775276 270.303497,119.835419 
	C273.531433,122.652092 276.964569,125.233620 280.651550,127.961784 
	C281.000000,130.370560 281.000000,132.741104 281.000000,135.555832 
	C277.728027,133.894440 274.171051,132.123840 271.234100,129.624588 
	C259.365540,119.524849 247.627716,109.268761 235.956757,98.940285 
	C223.966354,88.329102 212.224915,77.434769 200.162979,66.906731 
	C188.066162,56.348251 175.647858,46.158962 163.487167,35.672512 
	C156.089417,29.293247 148.881378,22.692154 141.646896,16.125929 
	C136.406006,11.369153 131.261642,6.506037 126.037117,1.345170 
	C129.361282,1.000000 132.722580,1.000000 136.541931,1.000000 
z"/>
<path fill="#131314" opacity="1.000000" stroke="none" 
	d="
M187.000000,1.000000 
	C191.689255,1.000000 196.378510,1.000000 201.570557,1.344049 
	C203.188095,3.097924 204.121582,4.713705 205.448959,5.881939 
	C211.214935,10.956641 217.215637,15.768629 222.904068,20.926405 
	C229.840027,27.215338 236.411819,33.908203 243.393585,40.143688 
	C250.523788,46.511780 257.898956,52.611382 265.282990,58.687469 
	C270.420532,62.914986 275.754028,66.904282 281.000000,71.000000 
	C281.000000,75.024544 281.000000,79.049088 280.632202,83.531723 
	C278.993469,83.305954 277.530273,82.837219 276.484009,81.902046 
	C271.127167,77.114128 265.961731,72.110664 260.572083,67.361076 
	C251.253098,59.148800 241.836151,51.047207 232.427414,42.937355 
	C221.017471,33.102573 209.443558,23.452728 198.211990,13.419073 
	C194.076721,9.724842 190.714706,5.165011 187.000000,1.000000 
z"/>
<path fill="#151516" opacity="1.000000" stroke="none" 
	d="
M281.000000,70.533890 
	C275.754028,66.904282 270.420532,62.914986 265.282990,58.687469 
	C257.898956,52.611382 250.523788,46.511780 243.393585,40.143688 
	C236.411819,33.908203 229.840027,27.215338 222.904068,20.926405 
	C217.215637,15.768629 211.214935,10.956641 205.448959,5.881939 
	C204.121582,4.713705 203.188095,3.097924 202.036667,1.344049 
	C207.354935,1.000000 212.709854,1.000000 218.570465,1.348557 
	C220.870911,4.029219 222.350449,6.718530 224.516403,8.630021 
	C232.761154,15.906103 241.327972,22.816984 249.582047,30.082882 
	C257.399994,36.964840 264.873962,44.238605 272.721863,51.084805 
	C275.100403,53.159760 278.219879,54.385361 281.000000,55.999996 
	C281.000000,60.689255 281.000000,65.378510 281.000000,70.533890 
z"/>
<path fill="#121212" opacity="1.000000" stroke="none" 
	d="
M186.536819,1.000000 
	C190.714706,5.165011 194.076721,9.724842 198.211990,13.419073 
	C209.443558,23.452728 221.017471,33.102573 232.427414,42.937355 
	C241.836151,51.047207 251.253098,59.148800 260.572083,67.361076 
	C265.961731,72.110664 271.127167,77.114128 276.484009,81.902046 
	C277.530273,82.837219 278.993469,83.305954 280.632202,83.994911 
	C281.000000,87.030594 281.000000,90.061188 280.647675,93.508835 
	C278.749481,93.002098 277.019073,92.288887 275.686615,91.121521 
	C263.999939,80.883018 252.452942,70.484459 240.723724,60.295441 
	C232.739731,53.359840 224.529816,46.684319 216.421509,39.891788 
	C210.212601,34.690411 203.898209,29.608696 197.823532,24.254984 
	C190.419785,17.729959 183.190781,11.005051 175.963486,4.283495 
	C175.066727,3.449490 174.642944,2.106914 174.000000,0.999998 
	C178.024551,1.000000 182.049088,1.000000 186.536819,1.000000 
z"/>
<path fill="#101011" opacity="1.000000" stroke="none" 
	d="
M173.545898,0.999998 
	C174.642944,2.106914 175.066727,3.449490 175.963486,4.283495 
	C183.190781,11.005051 190.419785,17.729959 197.823532,24.254984 
	C203.898209,29.608696 210.212601,34.690411 216.421509,39.891788 
	C224.529816,46.684319 232.739731,53.359840 240.723724,60.295441 
	C252.452942,70.484459 263.999939,80.883018 275.686615,91.121521 
	C277.019073,92.288887 278.749481,93.002098 280.647675,93.962952 
	C281.000000,97.030594 281.000000,100.061188 281.000000,103.545891 
	C274.982086,99.461700 268.800751,95.121307 262.994324,90.326904 
	C257.674103,85.933990 252.802856,81.001381 247.649277,76.401237 
	C244.232635,73.351494 240.640884,70.498878 237.174179,67.504044 
	C231.541504,62.638103 225.932785,57.744213 220.339310,52.833256 
	C206.176682,40.398739 191.958496,28.026014 177.912109,15.461372 
	C173.072678,11.132439 168.675522,6.309062 164.038162,1.355777 
	C167.030594,1.000000 170.061188,1.000000 173.545898,0.999998 
z"/>
<path fill="#181819" opacity="1.000000" stroke="none" 
	d="
M281.000000,55.533134 
	C278.219879,54.385361 275.100403,53.159760 272.721863,51.084805 
	C264.873962,44.238605 257.399994,36.964840 249.582047,30.082882 
	C241.327972,22.816984 232.761154,15.906103 224.516403,8.630021 
	C222.350449,6.718530 220.870911,4.029219 219.038071,1.348557 
	C224.022095,1.000000 229.044189,1.000000 234.571686,1.346204 
	C235.382019,2.272610 235.551788,3.007313 236.012039,3.409966 
	C243.604385,10.052120 251.237534,16.647596 258.851593,23.264967 
	C261.430786,25.506531 263.840027,27.972414 266.578186,29.995760 
	C271.281494,33.471199 276.182190,36.679535 281.000000,40.000000 
	C281.000000,45.022091 281.000000,50.044186 281.000000,55.533134 
z"/>
<path fill="#1A1A1B" opacity="1.000000" stroke="none" 
	d="
M281.000000,39.535347 
	C276.182190,36.679535 271.281494,33.471199 266.578186,29.995760 
	C263.840027,27.972414 261.430786,25.506531 258.851593,23.264967 
	C251.237534,16.647596 243.604385,10.052120 236.012039,3.409966 
	C235.551788,3.007313 235.382019,2.272610 235.038544,1.346204 
	C240.354935,1.000000 245.709854,1.000000 251.569550,1.345246 
	C252.955017,2.864311 253.651901,4.257006 254.746414,5.176244 
	C261.570282,10.907277 268.456787,16.564953 275.384796,22.169947 
	C277.140320,23.590244 279.122162,24.730867 281.000000,26.000000 
	C281.000000,30.356899 281.000000,34.713799 281.000000,39.535347 
z"/>
<path fill="#1C1C1D" opacity="1.000000" stroke="none" 
	d="
M281.000000,25.531319 
	C279.122162,24.730867 277.140320,23.590244 275.384796,22.169947 
	C268.456787,16.564953 261.570282,10.907277 254.746414,5.176244 
	C253.651901,4.257006 252.955017,2.864311 252.037155,1.345246 
	C261.587646,1.000000 271.175293,1.000000 281.000000,1.000000 
	C281.000000,9.019328 281.000000,17.040985 281.000000,25.531319 
z"/>
<path fill="#FDFDFD" opacity="1.000000" stroke="none" 
	d="
M224.294418,108.905205 
	C228.638870,120.451286 230.864136,132.073502 230.800720,144.557831 
	C230.354660,148.557175 229.797852,152.117905 229.242126,155.678802 
	C222.618057,198.124832 183.805664,229.154251 141.897705,228.950272 
	C119.244545,228.839996 96.590141,228.976761 73.937195,228.846771 
	C72.039001,228.835876 70.147614,227.640366 68.253052,226.995224 
	C69.245262,225.387772 69.977783,223.524689 71.269699,222.212265 
	C84.769920,208.497665 98.381104,194.892395 111.904640,181.200623 
	C114.237076,178.839172 116.690239,177.705490 120.183609,177.725906 
	C129.656357,177.781189 139.213852,178.027451 148.587006,176.920898 
	C162.019196,175.335190 171.429962,167.422958 176.602783,155.048767 
	C182.161392,141.751694 179.772034,129.276413 170.896408,118.135086 
	C164.828461,110.518166 156.674622,105.927933 146.987244,105.368309 
	C136.717865,104.775070 126.387657,105.235046 115.429375,105.235046 
	C115.429375,115.123459 115.432182,124.872627 115.428444,134.621796 
	C115.425743,141.692856 115.421875,141.697830 108.158432,141.700333 
	C95.499016,141.704712 82.836632,141.545624 70.181725,141.784714 
	C65.534294,141.872513 64.183350,140.197449 64.214600,135.665604 
	C64.389168,110.347969 64.385887,85.027931 64.216965,59.710220 
	C64.187119,55.237099 65.372009,53.630859 70.107185,53.721977 
	C85.092751,54.010334 100.087624,53.814896 115.538185,53.708206 
	C126.021141,53.690781 136.044815,53.771717 146.530792,53.773788 
	C183.099411,57.405281 209.394226,74.877586 224.294418,108.905205 
z"/>
</svg>