<svg version="1.1" id="Layer_1" xmlns="http://www.w3.org/2000/svg" xmlns:xlink="http://www.w3.org/1999/xlink" x="0px" y="0px"
	 width="100%" viewBox="0 0 1280 640" enable-background="new 0 0 1280 640" xml:space="preserve">
<path fill="#FFFFFF" opacity="1.000000" stroke="none" 
	d="
M769.000000,641.000000 
	C512.699951,641.000000 256.899902,641.000000 1.049932,641.000000 
	C1.049932,427.727722 1.049932,214.455429 1.049932,1.091570 
	C427.550079,1.091570 854.100159,1.091570 1280.825195,1.091570 
	C1280.825195,214.333221 1280.825195,427.666595 1280.825195,641.000000 
	C1110.455322,641.000000 939.977661,641.000000 769.000000,641.000000 
M640.152161,69.898468 
	C563.822815,97.079964 487.498779,124.276276 411.143036,151.383270 
	C408.379395,152.364395 407.610199,153.746887 407.977203,156.499893 
	C409.054108,164.579056 409.988739,172.677933 410.910675,180.776886 
	C414.052948,208.380966 417.114471,235.994324 420.302795,263.593079 
	C424.464539,299.618164 428.734253,335.630737 432.926453,371.652344 
	C436.234070,400.073120 439.586670,428.489441 442.666321,456.935120 
	C443.075470,460.714294 444.415314,462.705231 447.712708,464.522461 
	C495.539795,490.880371 543.267273,517.418945 591.049683,543.858032 
	C607.648132,553.042236 624.331604,562.072876 641.713318,571.471924 
	C643.060791,570.833374 644.447510,570.265747 645.750000,569.545776 
	C678.465271,551.464294 711.172729,533.368835 743.879150,515.271362 
	C774.408264,498.378601 804.925415,481.464478 835.477173,464.612915 
	C838.214539,463.103058 840.142273,461.604004 840.391602,457.969513 
	C840.913635,450.357971 842.093018,442.792145 842.981567,435.205078 
	C844.836182,419.368896 846.692322,403.532837 848.519836,387.693512 
	C850.689941,368.883270 852.827271,350.069275 854.984985,331.257599 
	C856.783020,315.582001 858.582886,299.906586 860.394714,284.232605 
	C862.587646,265.262146 864.792542,246.293106 866.994934,227.323746 
	C868.833130,211.491806 870.693970,195.662445 872.507751,179.827713 
	C873.541931,170.799301 874.502258,161.762436 875.503784,152.657227 
	C873.572754,151.961365 872.188721,151.458862 870.802124,150.963486 
	C795.702026,124.132584 720.603394,97.297600 645.488892,70.507202 
	C644.060059,69.997589 642.442993,70.015694 640.152161,69.898468 
z"/>
<path fill="#804FBD" opacity="1.000000" stroke="none" 
	d="
M640.913757,69.787598 
	C642.442993,70.015694 644.060059,69.997589 645.488892,70.507202 
	C720.603394,97.297600 795.702026,124.132584 870.802124,150.963486 
	C872.188721,151.458862 873.572754,151.961365 875.503784,152.657227 
	C874.502258,161.762436 873.541931,170.799301 872.507751,179.827713 
	C870.693970,195.662445 868.833130,211.491806 866.994934,227.323746 
	C864.792542,246.293106 862.587646,265.262146 860.394714,284.232605 
	C858.582886,299.906586 856.783020,315.582001 854.984985,331.257599 
	C852.827271,350.069275 850.689941,368.883270 848.519836,387.693512 
	C846.692322,403.532837 844.836182,419.368896 842.981567,435.205078 
	C842.093018,442.792145 840.913635,450.357971 840.391602,457.969513 
	C840.142273,461.604004 838.214539,463.103058 835.477173,464.612915 
	C804.925415,481.464478 774.408264,498.378601 743.879150,515.271362 
	C711.172729,533.368835 678.465271,551.464294 645.750000,569.545776 
	C644.447510,570.265747 643.060791,570.833374 641.354858,570.838989 
	C640.972656,514.072998 640.948975,457.939941 641.091248,401.507965 
	C644.447815,398.468658 645.060303,394.919525 645.052734,390.876282 
	C644.968994,346.077118 644.956726,301.277588 645.067749,256.478577 
	C645.078735,252.048401 644.247314,248.272064 640.935486,244.767181 
	C640.948608,186.118317 640.931152,127.952957 640.913757,69.787598 
M736.048401,320.560547 
	C736.433167,336.074127 734.334351,351.286041 727.584229,365.269104 
	C722.704224,375.378235 716.265320,384.746002 710.359985,394.344971 
	C706.608337,400.443390 707.571838,406.424530 713.309326,410.505890 
	C718.753235,414.378418 723.859680,413.345886 728.509338,407.754547 
	C738.521912,395.714233 746.329041,382.358917 751.129822,367.509033 
	C766.616028,319.606171 758.704590,275.971405 726.450439,237.020493 
	C721.737793,231.329391 716.454407,230.396667 711.292908,234.325897 
	C705.373413,238.832184 704.426575,244.987213 708.788574,250.871902 
	C709.977539,252.475906 711.317749,253.967239 712.519287,255.562469 
	C726.808777,274.533173 735.384583,295.605255 736.048401,320.560547 
M701.672241,357.139465 
	C702.164429,355.901428 702.689514,354.675323 703.143982,353.423553 
	C713.758484,324.187866 709.518372,297.140869 691.025818,272.276825 
	C686.287109,265.905396 678.691406,265.802979 673.529724,271.770813 
	C669.441284,276.497772 669.623535,281.315399 674.128540,287.608215 
	C689.720703,309.387970 690.262268,334.994843 675.654602,357.249390 
	C674.569092,358.903015 673.564026,360.689972 672.947998,362.555756 
	C671.286682,367.587524 674.282104,373.617798 679.506653,376.190033 
	C683.930298,378.367920 689.248108,377.184967 692.294189,372.733490 
	C695.572449,367.942596 698.337952,362.800812 701.672241,357.139465 
z"/>
<path fill="#8C56CF" opacity="1.000000" stroke="none" 
	d="
M640.532959,69.843033 
	C640.931152,127.952957 640.948608,186.118317 640.577637,244.662079 
	C635.067383,242.156952 630.720154,243.640182 626.496826,247.161148 
	C610.006348,260.909119 593.371338,274.484711 576.957092,288.322510 
	C573.568970,291.178864 570.235413,292.638702 565.745361,292.428894 
	C558.603394,292.095245 551.433472,292.266296 544.277161,292.359070 
	C535.095093,292.478149 531.179382,296.428070 531.146729,305.544342 
	C531.103760,317.528900 531.101318,329.513855 531.147339,341.498413 
	C531.183044,350.782898 534.842224,354.508698 544.156189,354.637085 
	C551.978088,354.744934 559.812561,354.436920 567.620239,354.786621 
	C570.199158,354.902130 573.196960,355.896576 575.179077,357.504883 
	C592.366882,371.451477 609.391235,385.600281 626.406128,399.758759 
	C630.896362,403.495178 635.507385,405.210815 640.925293,401.806854 
	C640.948975,457.939941 640.972656,514.072998 640.986267,570.689880 
	C624.331604,562.072876 607.648132,553.042236 591.049683,543.858032 
	C543.267273,517.418945 495.539795,490.880371 447.712708,464.522461 
	C444.415314,462.705231 443.075470,460.714294 442.666321,456.935120 
	C439.586670,428.489441 436.234070,400.073120 432.926453,371.652344 
	C428.734253,335.630737 424.464539,299.618164 420.302795,263.593079 
	C417.114471,235.994324 414.052948,208.380966 410.910675,180.776886 
	C409.988739,172.677933 409.054108,164.579056 407.977203,156.499893 
	C407.610199,153.746887 408.379395,152.364395 411.143036,151.383270 
	C487.498779,124.276276 563.822815,97.079964 640.532959,69.843033 
z"/>
<path fill="#FFFEFF" opacity="1.000000" stroke="none" 
	d="
M641.091187,401.507965 
	C635.507385,405.210815 630.896362,403.495178 626.406128,399.758759 
	C609.391235,385.600281 592.366882,371.451477 575.179077,357.504883 
	C573.196960,355.896576 570.199158,354.902130 567.620239,354.786621 
	C559.812561,354.436920 551.978088,354.744934 544.156189,354.637085 
	C534.842224,354.508698 531.183044,350.782898 531.147339,341.498413 
	C531.101318,329.513855 531.103760,317.528900 531.146729,305.544342 
	C531.179382,296.428070 535.095093,292.478149 544.277161,292.359070 
	C551.433472,292.266296 558.603394,292.095245 565.745361,292.428894 
	C570.235413,292.638702 573.568970,291.178864 576.957092,288.322510 
	C593.371338,274.484711 610.006348,260.909119 626.496826,247.161148 
	C630.720154,243.640182 635.067383,242.156952 640.547119,245.145599 
	C644.247314,248.272064 645.078735,252.048401 645.067749,256.478577 
	C644.956726,301.277588 644.968994,346.077118 645.052734,390.876282 
	C645.060303,394.919525 644.447815,398.468658 641.091187,401.507965 
z"/>
<path fill="#FDFDFE" opacity="1.000000" stroke="none" 
	d="
M736.033691,320.075134 
	C735.384583,295.605255 726.808777,274.533173 712.519287,255.562469 
	C711.317749,253.967239 709.977539,252.475906 708.788574,250.871902 
	C704.426575,244.987213 705.373413,238.832184 711.292908,234.325897 
	C716.454407,230.396667 721.737793,231.329391 726.450439,237.020493 
	C758.704590,275.971405 766.616028,319.606171 751.129822,367.509033 
	C746.329041,382.358917 738.521912,395.714233 728.509338,407.754547 
	C723.859680,413.345886 718.753235,414.378418 713.309326,410.505890 
	C707.571838,406.424530 706.608337,400.443390 710.359985,394.344971 
	C716.265320,384.746002 722.704224,375.378235 727.584229,365.269104 
	C734.334351,351.286041 736.433167,336.074127 736.033691,320.075134 
z"/>
<path fill="#FDFDFE" opacity="1.000000" stroke="none" 
	d="
M701.499695,357.475769 
	C698.337952,362.800812 695.572449,367.942596 692.294189,372.733490 
	C689.248108,377.184967 683.930298,378.367920 679.506653,376.190033 
	C674.282104,373.617798 671.286682,367.587524 672.947998,362.555756 
	C673.564026,360.689972 674.569092,358.903015 675.654602,357.249390 
	C690.262268,334.994843 689.720703,309.387970 674.128540,287.608215 
	C669.623535,281.315399 669.441284,276.497772 673.529724,271.770813 
	C678.691406,265.802979 686.287109,265.905396 691.025818,272.276825 
	C709.518372,297.140869 713.758484,324.187866 703.143982,353.423553 
	C702.689514,354.675323 702.164429,355.901428 701.499695,357.475769 
z"/>
</svg>