<svg version="1.1" id="Layer_1" xmlns="http://www.w3.org/2000/svg" xmlns:xlink="http://www.w3.org/1999/xlink" x="0px" y="0px"
	 width="100%" viewBox="0 0 512 512" enable-background="new 0 0 512 512" xml:space="preserve">
<path fill="#607EFF" opacity="1.000000" stroke="none" 
	d="
M354.000000,513.000000 
	C236.028671,513.000000 118.557327,513.000000 1.042998,513.000000 
	C1.042998,342.403656 1.042998,171.807281 1.042998,1.105453 
	C171.554672,1.105453 342.109436,1.105453 512.832092,1.105453 
	C512.832092,171.666534 512.832092,342.333252 512.832092,513.000000 
	C460.140533,513.000000 407.320282,513.000000 354.000000,513.000000 
M310.500122,467.664917 
	C318.700439,463.621490 321.862183,458.096985 320.222626,450.676880 
	C318.533691,443.033508 313.076569,439.099304 303.953278,439.056000 
	C294.787964,439.012512 285.618195,438.883911 276.458801,439.119568 
	C272.666687,439.217133 271.628326,437.911804 271.664459,434.230865 
	C271.831268,417.234680 271.817413,400.235260 271.675385,383.238617 
	C271.644745,379.573425 272.616089,378.145020 276.564148,377.562012 
	C303.449341,373.592163 327.311310,362.678192 347.501404,344.493805 
	C376.972961,317.950073 392.047424,284.520752 393.519287,244.931747 
	C393.735016,239.128815 392.126862,233.961288 387.016357,230.630020 
	C382.209747,227.496826 377.037567,226.962646 371.861298,229.789246 
	C366.561646,232.683182 364.149536,237.257477 364.055817,243.303497 
	C363.642090,269.993774 354.864685,293.652191 337.049713,313.511444 
	C305.424957,348.765076 257.207428,359.756775 213.980591,340.370056 
	C176.986435,323.778595 155.770187,294.483032 150.732941,253.952423 
	C150.097931,248.843079 150.411713,243.560959 149.300507,238.578674 
	C147.688873,231.352615 140.031128,226.968353 132.658020,228.242996 
	C124.935539,229.578018 120.064384,236.289169 120.423721,245.213287 
	C121.370628,268.729767 127.036102,290.916290 139.255630,311.209686 
	C161.766968,348.595123 194.734558,370.585938 237.690536,377.591278 
	C241.426895,378.200623 242.313217,379.590393 242.289581,383.010101 
	C242.172134,400.007141 242.128311,417.006592 242.317490,434.002319 
	C242.361099,437.919189 241.268295,439.240875 237.248306,439.130920 
	C227.590317,438.866638 217.917816,438.935486 208.255157,439.101990 
	C200.365829,439.237946 195.219864,443.564331 193.681992,450.888184 
	C192.055740,458.632874 195.518173,463.945984 205.302490,469.062225 
	C206.351776,469.374359 207.400665,469.957733 208.450409,469.959290 
	C240.968155,470.007599 273.486053,470.021027 306.003601,469.920227 
	C307.327942,469.916107 308.648682,468.753052 310.500122,467.664917 
M167.701523,129.299133 
	C167.467834,130.576187 167.031296,131.853027 167.030014,133.130310 
	C166.993317,169.684036 166.983658,206.237823 167.059799,242.791428 
	C167.062943,244.291550 167.938843,245.789841 168.884476,247.849945 
	C169.269730,250.144638 169.713272,252.431274 170.031158,254.735260 
	C173.126022,277.165802 183.242416,295.927277 200.738159,310.140778 
	C228.704041,332.860229 260.207581,337.875336 292.866913,322.942566 
	C326.779022,307.436981 344.228607,279.438660 344.811920,242.004715 
	C345.369904,206.195236 345.075531,170.369186 344.809235,134.552979 
	C344.755310,127.299980 343.844269,119.892113 342.149689,112.838821 
	C331.495178,68.491783 288.817169,40.066189 243.637039,46.891129 
	C206.684525,52.473206 177.406906,81.103569 170.767197,118.089333 
	C170.127319,121.653717 169.200607,125.166603 167.701523,129.299133 
z"/>
<path fill="#FDFDFE" opacity="1.000000" stroke="none" 
	d="
M168.407028,128.703400 
	C169.200607,125.166603 170.127319,121.653717 170.767197,118.089333 
	C177.406906,81.103569 206.684525,52.473206 243.637039,46.891129 
	C288.817169,40.066189 331.495178,68.491783 342.149689,112.838821 
	C343.844269,119.892113 344.755310,127.299980 344.809235,134.552979 
	C345.075531,170.369186 345.369904,206.195236 344.811920,242.004715 
	C344.228607,279.438660 326.779022,307.436981 292.866913,322.942566 
	C260.207581,337.875336 228.704041,332.860229 200.738159,310.140778 
	C183.242416,295.927277 173.126022,277.165802 170.031158,254.735260 
	C169.713272,252.431274 169.269730,250.144638 168.757065,247.088074 
	C168.743744,219.736206 168.932953,193.146210 168.939072,166.556183 
	C168.941971,153.938614 168.595322,141.320999 168.407028,128.703400 
M242.593063,242.663116 
	C248.150925,242.863495 251.919586,239.927032 253.844620,235.145447 
	C259.002441,222.334000 267.581635,213.133652 280.610443,208.247040 
	C281.382782,207.957382 282.110107,207.524017 282.819214,207.093094 
	C290.575958,202.379700 290.661133,192.132782 282.921539,187.416107 
	C279.668152,185.433441 276.254578,183.714752 272.927948,181.850891 
	C268.176514,179.188721 263.069031,177.054352 260.517395,171.599670 
	C258.623138,167.550293 256.123444,163.785934 254.191879,159.751724 
	C251.856750,154.874634 248.539505,151.392654 242.852310,151.456345 
	C237.194794,151.519714 233.912064,155.024261 231.618866,159.917160 
	C226.606888,170.610931 220.507004,180.331879 208.379532,184.313065 
	C207.149567,184.716827 206.159225,185.810455 204.944672,186.308105 
	C199.963425,188.349075 197.118942,192.038925 197.188538,197.363998 
	C197.255463,202.483505 200.226501,206.204193 204.842438,208.074783 
	C217.058792,213.025406 226.343155,220.866516 231.203430,233.405487 
	C231.561279,234.328659 232.146805,235.160904 232.559158,236.066101 
	C234.372604,240.047043 237.460052,242.219879 242.593063,242.663116 
M287.242554,162.391037 
	C288.513794,164.712708 289.652161,167.120255 291.084808,169.337631 
	C293.794586,173.531693 298.077942,173.670975 300.358063,169.226654 
	C303.345367,163.403992 307.356750,159.184036 313.266571,156.167572 
	C318.382050,153.556549 318.316132,148.856674 313.173645,146.455109 
	C307.422638,143.769394 303.683319,139.768112 300.814209,134.251602 
	C297.948822,128.742249 293.213135,128.847733 290.449677,134.515717 
	C287.853851,139.839844 284.260803,143.520065 278.903290,146.127747 
	C273.046906,148.978241 273.232147,153.554672 278.807587,156.900299 
	C281.479218,158.503479 284.100128,160.191147 287.242554,162.391037 
z"/>
<path fill="#FCFCFF" opacity="1.000000" stroke="none" 
	d="
M205.057541,468.343994 
	C195.518173,463.945984 192.055740,458.632874 193.681992,450.888184 
	C195.219864,443.564331 200.365829,439.237946 208.255157,439.101990 
	C217.917816,438.935486 227.590317,438.866638 237.248306,439.130920 
	C241.268295,439.240875 242.361099,437.919189 242.317490,434.002319 
	C242.128311,417.006592 242.172134,400.007141 242.289581,383.010101 
	C242.313217,379.590393 241.426895,378.200623 237.690536,377.591278 
	C194.734558,370.585938 161.766968,348.595123 139.255630,311.209686 
	C127.036102,290.916290 121.370628,268.729767 120.423721,245.213287 
	C120.064384,236.289169 124.935539,229.578018 132.658020,228.242996 
	C140.031128,226.968353 147.688873,231.352615 149.300507,238.578674 
	C150.411713,243.560959 150.097931,248.843079 150.732941,253.952423 
	C155.770187,294.483032 176.986435,323.778595 213.980591,340.370056 
	C257.207428,359.756775 305.424957,348.765076 337.049713,313.511444 
	C354.864685,293.652191 363.642090,269.993774 364.055817,243.303497 
	C364.149536,237.257477 366.561646,232.683182 371.861298,229.789246 
	C377.037567,226.962646 382.209747,227.496826 387.016357,230.630020 
	C392.126862,233.961288 393.735016,239.128815 393.519287,244.931747 
	C392.047424,284.520752 376.972961,317.950073 347.501404,344.493805 
	C327.311310,362.678192 303.449341,373.592163 276.564148,377.562012 
	C272.616089,378.145020 271.644745,379.573425 271.675385,383.238617 
	C271.817413,400.235260 271.831268,417.234680 271.664459,434.230865 
	C271.628326,437.911804 272.666687,439.217133 276.458801,439.119568 
	C285.618195,438.883911 294.787964,439.012512 303.953278,439.056000 
	C313.076569,439.099304 318.533691,443.033508 320.222626,450.676880 
	C321.862183,458.096985 318.700439,463.621490 309.770386,467.872803 
	C305.708618,468.134613 302.376709,468.231049 299.044647,468.235809 
	C267.715607,468.280792 236.386581,468.310150 205.057541,468.343994 
z"/>
<path fill="#4B71FF" opacity="1.000000" stroke="none" 
	d="
M205.180023,468.703125 
	C236.386581,468.310150 267.715607,468.280792 299.044647,468.235809 
	C302.376709,468.231049 305.708618,468.134613 309.505859,468.105316 
	C308.648682,468.753052 307.327942,469.916107 306.003601,469.920227 
	C273.486053,470.021027 240.968155,470.007599 208.450409,469.959290 
	C207.400665,469.957733 206.351776,469.374359 205.180023,468.703125 
z"/>
<path fill="#5275FF" opacity="1.000000" stroke="none" 
	d="
M168.054276,129.001266 
	C168.595322,141.320999 168.941971,153.938614 168.939072,166.556183 
	C168.932953,193.146210 168.743744,219.736206 168.518890,246.807602 
	C167.938843,245.789841 167.062943,244.291550 167.059799,242.791428 
	C166.983658,206.237823 166.993317,169.684036 167.030014,133.130310 
	C167.031296,131.853027 167.467834,130.576187 168.054276,129.001266 
z"/>
<path fill="#040404" opacity="1.000000" stroke="none" 
	d="
M242.194641,242.657471 
	C237.460052,242.219879 234.372604,240.047043 232.559158,236.066101 
	C232.146805,235.160904 231.561279,234.328659 231.203430,233.405487 
	C226.343155,220.866516 217.058792,213.025406 204.842438,208.074783 
	C200.226501,206.204193 197.255463,202.483505 197.188538,197.363998 
	C197.118942,192.038925 199.963425,188.349075 204.944672,186.308105 
	C206.159225,185.810455 207.149567,184.716827 208.379532,184.313065 
	C220.507004,180.331879 226.606888,170.610931 231.618866,159.917160 
	C233.912064,155.024261 237.194794,151.519714 242.852310,151.456345 
	C248.539505,151.392654 251.856750,154.874634 254.191879,159.751724 
	C256.123444,163.785934 258.623138,167.550293 260.517395,171.599670 
	C263.069031,177.054352 268.176514,179.188721 272.927948,181.850891 
	C276.254578,183.714752 279.668152,185.433441 282.921539,187.416107 
	C290.661133,192.132782 290.575958,202.379700 282.819214,207.093094 
	C282.110107,207.524017 281.382782,207.957382 280.610443,208.247040 
	C267.581635,213.133652 259.002441,222.334000 253.844620,235.145447 
	C251.919586,239.927032 248.150925,242.863495 242.194641,242.657471 
z"/>
<path fill="#070707" opacity="1.000000" stroke="none" 
	d="
M286.993286,162.115784 
	C284.100128,160.191147 281.479218,158.503479 278.807587,156.900299 
	C273.232147,153.554672 273.046906,148.978241 278.903290,146.127747 
	C284.260803,143.520065 287.853851,139.839844 290.449677,134.515717 
	C293.213135,128.847733 297.948822,128.742249 300.814209,134.251602 
	C303.683319,139.768112 307.422638,143.769394 313.173645,146.455109 
	C318.316132,148.856674 318.382050,153.556549 313.266571,156.167572 
	C307.356750,159.184036 303.345367,163.403992 300.358063,169.226654 
	C298.077942,173.670975 293.794586,173.531693 291.084808,169.337631 
	C289.652161,167.120255 288.513794,164.712708 286.993286,162.115784 
z"/>
</svg>